<svg xmlns="http://www.w3.org/2000/svg" viewBox="0 0 512 512" width="512" height="512">
  <defs>
    <linearGradient id="bgGrad" x1="0" y1="0" x2="1" y2="1">
      <stop offset="0%" stop-color="#FF8A5C"/>
      <stop offset="100%" stop-color="#FF6B35"/>
    </linearGradient>
  </defs>
  <!-- 배경 -->
  <rect width="512" height="512" rx="112" fill="url(#bgGrad)"/>
  <!-- 그릇 (bowl) -->
  <ellipse cx="256" cy="290" rx="130" ry="30" fill="none" stroke="#FFFBF5" stroke-width="8"/>
  <path d="M126 290 Q126 380 256 380 Q386 380 386 290" fill="none" stroke="#FFFBF5" stroke-width="8" stroke-linecap="round"/>
  <!-- 젓가락 -->
  <line x1="210" y1="160" x2="230" y2="280" stroke="#FFFBF5" stroke-width="8" stroke-linecap="round"/>
  <line x1="240" y1="155" x2="258" y2="280" stroke="#FFFBF5" stroke-width="8" stroke-linecap="round"/>
  <!-- 김 (steam) -->
  <path d="M220 220 Q210 195 220 170 Q230 145 220 120" fill="none" stroke="#FFFBF5" stroke-width="5" stroke-linecap="round" opacity="0.7"/>
  <path d="M256 215 Q246 190 256 165 Q266 140 256 115" fill="none" stroke="#FFFBF5" stroke-width="5" stroke-linecap="round" opacity="0.7"/>
  <path d="M292 220 Q282 195 292 170 Q302 145 292 120" fill="none" stroke="#FFFBF5" stroke-width="5" stroke-linecap="round" opacity="0.7"/>
</svg>
